<svg xmlns="http://www.w3.org/2000/svg" viewBox="0 0 32 32"><g id="_3d" data-name="3d"><path d="M16,2A14,14,0,1,0,30,16,14,14,0,0,0,16,2Zm0,26A12,12,0,1,1,28,16,12,12,0,0,1,16,28Z"/><path d="M12,11a3.4,3.4,0,0,0-2.41,1l-.3.29a1,1,0,0,0,1.42,1.42l.29-.3A1.43,1.43,0,0,1,12,13a1,1,0,0,1,0,2H11a1,1,0,0,0,0,2h1a1,1,0,0,1,0,2,1.43,1.43,0,0,1-1-.41l-.29-.3a1,1,0,0,0-1.42,1.42l.3.29A3.4,3.4,0,0,0,12,21a3,3,0,0,0,3-3,3,3,0,0,0-.77-2A3,3,0,0,0,15,14,3,3,0,0,0,12,11Z"/><path d="M19.25,11.43,17.2,11a1,1,0,0,0-.83.21A1,1,0,0,0,16,12v8a1,1,0,0,0,1,1l.2,0,2.05-.41a4.66,4.66,0,0,0,0-9.14Zm-.39,7.18-.86.17V13.22l.86.17a2.66,2.66,0,0,1,0,5.22Z"/></g></svg>