<svg xmlns="http://www.w3.org/2000/svg" viewBox="0 0 32 32"><g id="add_movie" data-name="add movie"><path d="M27,18.81V6a4,4,0,0,0-4-4H6A4,4,0,0,0,2,6V22a4,4,0,0,0,4,4H18.35A6,6,0,1,0,27,18.81ZM25,6V8H18.6l1.85-4H23A2,2,0,0,1,25,6ZM18.24,4,16.39,8H10.64l1.84-4ZM6,4h4.28L8.43,8H4V6A2,2,0,0,1,6,4ZM6,24a2,2,0,0,1-2-2V10H25v8.09A6.64,6.64,0,0,0,24,18a6,6,0,0,0-6,6Zm18,4a4,4,0,1,1,4-4A4,4,0,0,1,24,28Z"/><path d="M26,23H25V22a1,1,0,0,0-2,0v1H22a1,1,0,0,0,0,2h1v1a1,1,0,0,0,2,0V25h1a1,1,0,0,0,0-2Z"/></g></svg>