<svg xmlns="http://www.w3.org/2000/svg" viewBox="0 0 32 32"><g id="add_record" data-name="add record"><path d="M27,18.81V6.34A3.35,3.35,0,0,0,23.66,3H5.34A3.35,3.35,0,0,0,2,6.34V23.66A3.35,3.35,0,0,0,5.34,27H18.81A6,6,0,1,0,27,18.81ZM24,18a6,6,0,0,0-2,.35V12h3v6.09A6.64,6.64,0,0,0,24,18ZM25,6.34V10H22V5h1.66A1.34,1.34,0,0,1,25,6.34ZM4,12H7v6H4ZM5.34,5H7v5H4V6.34A1.34,1.34,0,0,1,5.34,5ZM4,23.66V20H7v5H5.34A1.34,1.34,0,0,1,4,23.66ZM9,25V5H20V19.54A6,6,0,0,0,18,24a6.64,6.64,0,0,0,.09,1Zm15,3a4,4,0,1,1,4-4A4,4,0,0,1,24,28Z"/><path d="M26,23H25V22a1,1,0,0,0-2,0v1H22a1,1,0,0,0,0,2h1v1a1,1,0,0,0,2,0V25h1a1,1,0,0,0,0-2Z"/></g></svg>