<svg width="24" height="24" viewBox="0 0 24 24" fill="none" xmlns="http://www.w3.org/2000/svg">
<path fill-rule="evenodd" clip-rule="evenodd" d="M11.9669 1.25L12.0005 1.25L12.034 1.25C13.4058 1.25 14.4812 1.24999 15.3456 1.32061C16.2257 1.39252 16.9528 1.54138 17.6109 1.87671C18.6929 2.42798 19.5725 3.30762 20.1238 4.38955C20.4591 5.04769 20.608 5.77479 20.6799 6.65494C20.7505 7.51928 20.7505 8.59471 20.7505 9.96642V10V13C20.7505 13.4142 20.4147 13.75 20.0005 13.75C19.5863 13.75 19.2505 13.4142 19.2505 13V10C19.2505 8.58749 19.2499 7.57322 19.1849 6.77708C19.1205 5.9897 18.9969 5.48197 18.7873 5.07054C18.3798 4.27085 17.7296 3.62068 16.9299 3.21322C16.5185 3.00359 16.0108 2.87996 15.2234 2.81563C14.4273 2.75058 13.413 2.75 12.0005 2.75C10.588 2.75 9.57371 2.75058 8.77757 2.81563C7.99019 2.87996 7.48246 3.00359 7.07103 3.21322C6.27134 3.62068 5.62117 4.27085 5.21371 5.07054C5.00408 5.48197 4.88045 5.9897 4.81612 6.77708C4.75107 7.57322 4.75049 8.58749 4.75049 10V20.7865L5.94075 20.1913L6.05814 20.1326C8.04516 19.139 9.1823 18.5703 10.387 18.3443C11.4534 18.1443 12.5476 18.1443 13.614 18.3443C14.8187 18.5703 15.9558 19.139 17.9428 20.1326L18.0602 20.1913L19.2505 20.7865V18C19.2505 17.5858 19.5863 17.25 20.0005 17.25C20.4147 17.25 20.7505 17.5858 20.7505 18V22C20.7505 22.2599 20.6159 22.5013 20.3948 22.638C20.1737 22.7746 19.8976 22.7871 19.6651 22.6708L17.3894 21.533C15.2516 20.4641 14.3107 20.0012 13.3374 19.8186C12.4538 19.6528 11.5472 19.6528 10.6636 19.8186C9.69028 20.0012 8.74936 20.4641 6.61157 21.533L4.3359 22.6708C4.10341 22.7871 3.8273 22.7746 3.60619 22.638C3.38508 22.5013 3.25049 22.2599 3.25049 22V10L3.25049 9.96644C3.25048 8.59472 3.25048 7.51929 3.3211 6.65494C3.39301 5.77479 3.54187 5.04769 3.8772 4.38955C4.42847 3.30762 5.30811 2.42798 6.39004 1.87671C7.04817 1.54138 7.77528 1.39252 8.65542 1.32061C9.51977 1.24999 10.5952 1.25 11.9669 1.25Z" fill="#9B9B9B"/>
</svg>
