<svg xmlns="http://www.w3.org/2000/svg" viewBox="0 0 32 32"><g id="broken_video" data-name="broken video"><path d="M25.66,6H17V3a1,1,0,0,0-1-1H6.34A3.35,3.35,0,0,0,3,5.34V22.66A3.35,3.35,0,0,0,6.34,26H15v3a1,1,0,0,0,1,1h9.66A3.35,3.35,0,0,0,29,26.66V9.34A3.35,3.35,0,0,0,25.66,6ZM17,22V14H27v8ZM5,18V10H15v8ZM27,9.34V12H23V8h2.66A1.34,1.34,0,0,1,27,9.34ZM21,8v4H17V8ZM15,7V8H11V4h4ZM6.34,4H9V8H5V5.34A1.34,1.34,0,0,1,6.34,4ZM5,22.66V20H9v4H6.34A1.34,1.34,0,0,1,5,22.66ZM11,24V20h4v4Zm6,1V24h4v4H17Zm8.66,3H23V24h4v2.66A1.34,1.34,0,0,1,25.66,28Z"/></g></svg>