<svg xmlns="http://www.w3.org/2000/svg" viewBox="0 0 32 32"><g id="browser"><path d="M26,4H6A4,4,0,0,0,2,8V24a4,4,0,0,0,4,4H26a4,4,0,0,0,4-4V8A4,4,0,0,0,26,4Zm2,20a2,2,0,0,1-2,2H6a2,2,0,0,1-2-2V8A2,2,0,0,1,6,6H26a2,2,0,0,1,2,2Z"/><path d="M19.45,15.11l-6-3A1,1,0,0,0,12,13v6a1,1,0,0,0,.47.85A1,1,0,0,0,13,20a1,1,0,0,0,.45-.11l6-3a1,1,0,0,0,0-1.78ZM14,17.38V14.62L16.76,16Z"/><path d="M7,8H7A1,1,0,1,0,8,9,1,1,0,0,0,7,8Z"/><path d="M10,8h0a1,1,0,1,0,1,1A1,1,0,0,0,10,8Z"/><path d="M13,10a1,1,0,0,0,0-2h0a1,1,0,0,0,0,2Z"/></g></svg>