<svg xmlns="http://www.w3.org/2000/svg" viewBox="0 0 32 32"><g id="button_play" data-name="button play"><path d="M25.87,11H6.13A4.13,4.13,0,0,0,2,15.13v9.74A4.13,4.13,0,0,0,6.13,29H25.87A4.13,4.13,0,0,0,30,24.87V15.13A4.13,4.13,0,0,0,25.87,11ZM28,24.87A2.14,2.14,0,0,1,25.87,27H6.13A2.14,2.14,0,0,1,4,24.87V15.13A2.14,2.14,0,0,1,6.13,13H25.87A2.14,2.14,0,0,1,28,15.13Z"/><path d="M7,9H25a1,1,0,0,0,0-2H7A1,1,0,0,0,7,9Z"/><path d="M9,5H23a1,1,0,0,0,0-2H9A1,1,0,0,0,9,5Z"/><path d="M19.45,19.11l-6-3A1,1,0,0,0,12,17v6a1,1,0,0,0,.47.85A1,1,0,0,0,13,24a1,1,0,0,0,.45-.11l6-3a1,1,0,0,0,0-1.78ZM14,21.38V18.62L16.76,20Z"/></g></svg>