<svg xmlns="http://www.w3.org/2000/svg" viewBox="0 0 32 32"><g id="camera"><path d="M16,2A14,14,0,1,0,30,16,14,14,0,0,0,16,2Zm0,26A12,12,0,1,1,28,16,12,12,0,0,1,16,28Z"/><path d="M24.11,11.85a2.18,2.18,0,0,0-1.93-.3l-3.37,1.13A2.68,2.68,0,0,0,16.34,11H9.66A2.66,2.66,0,0,0,7,13.66v4.68A2.66,2.66,0,0,0,9.66,21h6.68a2.68,2.68,0,0,0,2.47-1.68l3.37,1.13h0a2.24,2.24,0,0,0,.67.11A2.15,2.15,0,0,0,25,18.41V13.59A2.14,2.14,0,0,0,24.11,11.85ZM17,18.34a.67.67,0,0,1-.66.66H9.66A.67.67,0,0,1,9,18.34V13.66A.67.67,0,0,1,9.66,13h6.68a.67.67,0,0,1,.66.66v4.68Zm6,.07a.14.14,0,0,1-.06.12.15.15,0,0,1-.13,0L19,17.28V14.72l3.81-1.27a.15.15,0,0,1,.13,0,.14.14,0,0,1,.06.12Z"/></g></svg>