<svg xmlns="http://www.w3.org/2000/svg" viewBox="0 0 32 32"><g id="comment"><path d="M25.93,22.47A11.1,11.1,0,0,0,30,14C30,7.38,23.72,2,16,2S2,7.38,2,14,8.28,26,16,26a16.19,16.19,0,0,0,4.18-.54,12.45,12.45,0,0,1,2.24,1.14,8,8,0,0,0,3.35,1.45,1.46,1.46,0,0,0,.71-.17c1.12-.61.61-2,0-3.78A13.32,13.32,0,0,1,25.93,22.47Zm-1.56-1.31c-.85.69-.41,1.92.2,3.62.1.26.22.6.33.92-.49-.25-1-.58-1.46-.82C21.93,24,21,23.45,20.15,23.45a1.84,1.84,0,0,0-.41.05A14.12,14.12,0,0,1,16,24C9.38,24,4,19.51,4,14S9.38,4,16,4,28,8.49,28,14A9.19,9.19,0,0,1,24.37,21.16Z"/><path d="M20.45,13.11l-6-3A1,1,0,0,0,13,11v6a1,1,0,0,0,.47.85A1,1,0,0,0,14,18a1,1,0,0,0,.45-.11l6-3a1,1,0,0,0,0-1.78ZM15,15.38V12.62L17.76,14Z"/></g></svg>