<svg xmlns="http://www.w3.org/2000/svg" viewBox="0 0 32 32"><g id="hd"><path d="M29.65,4.24A1,1,0,0,0,28.84,4,79.59,79.59,0,0,1,3.16,4,1,1,0,0,0,2,5V23a1,1,0,0,0,1.16,1,78.57,78.57,0,0,1,25.68,0H29a1,1,0,0,0,.65-.24A1,1,0,0,0,30,23V5A1,1,0,0,0,29.65,4.24ZM28,21.83a82.66,82.66,0,0,0-11-.89,82.23,82.23,0,0,0-13,.89V6.17a81.8,81.8,0,0,0,24,0Z"/><path d="M20.47,25.12a9.48,9.48,0,0,0-8.94,0,1,1,0,1,0,.94,1.76,7.52,7.52,0,0,1,7.06,0,1,1,0,0,0,.94-1.76Z"/><path d="M15,10a1,1,0,0,0-1,1v2H11V11a1,1,0,0,0-2,0v6a1,1,0,0,0,2,0V15h3v2a1,1,0,0,0,2,0V11A1,1,0,0,0,15,10Z"/><path d="M18,18l.18,0,1.65-.31A3.8,3.8,0,0,0,23,14a3.8,3.8,0,0,0-3.17-3.67L18.18,10a1,1,0,0,0-.82.21A1,1,0,0,0,17,11v6a1,1,0,0,0,.36.77A1,1,0,0,0,18,18Zm1-5.79.46.08A1.81,1.81,0,0,1,21,14a1.81,1.81,0,0,1-1.54,1.71l-.46.08Z"/></g></svg>