<?xml version="1.0" encoding="UTF-8"?>
<svg id="Layer_1" xmlns="http://www.w3.org/2000/svg" version="1.1" viewBox="0 0 24 24">
  <!-- Generator: Adobe Illustrator 29.0.1, SVG Export Plug-In . SVG Version: 2.1.0 Build 192)  -->
  <defs>
    <style>
      .st0 {
        fill: #9b9b9b;
        fill-rule: evenodd;
      }
    </style>
  </defs>
  <path class="st0" d="M9.5,2.9c-.9.6-2,1.4-3.5,2.6l-.2.2c-1.7,1.4-2.4,1.9-2.8,2.6,0,.1-.1.2-.2.4-.3.8-.3,1.6-.3,3.8v4.5c0,2.3,1.9,4.2,4.2,4.2s1.2-.6,1.2-1.2v-4c0-2.1,1.7-3.8,3.8-3.8s3.8,1.7,3.8,3.8v4c0,.7.6,1.2,1.2,1.2,2.3,0,4.2-1.9,4.2-4.2v-4.5c0-2.2,0-3-.3-3.8,0-.1-.1-.3-.2-.4-.2-.4-.6-.8-1.2-1.4-.3-.3-.3-.7,0-1.1.3-.3.7-.3,1.1,0,.7.6,1.2,1.1,1.6,1.8,0,.2.2.3.2.5.5,1.1.5,2.3.5,4.2v4.6c0,3.2-2.6,5.8-5.8,5.8s-2.8-1.2-2.8-2.8v-4c0-1.2-1-2.2-2.2-2.2s-2.2,1-2.2,2.2v4c0,1.5-1.2,2.8-2.8,2.8-3.2,0-5.8-2.6-5.8-5.8v-4.7c0-1.9,0-3.1.5-4.2,0-.2.2-.3.2-.5.6-1,1.5-1.8,3-3h.1c0-.1.2-.3.2-.3h0c1.5-1.2,2.6-2.1,3.6-2.7s2-1,3.1-1c1.8,0,3.3,1.1,5.5,2.8.3.3.4.7.1,1.1-.3.3-.7.4-1.1.1-2.2-1.8-3.3-2.4-4.5-2.4s-1.4.2-2.3.8h.1Z"/>
</svg>