<svg width="81" height="35" viewBox="0 0 81 35" fill="none" xmlns="http://www.w3.org/2000/svg">
<rect width="81" height="35" rx="16" fill="#3961FF"/>
<path fill-rule="evenodd" clip-rule="evenodd" d="M17.7367 8.43957C16.8162 9.00921 15.7337 9.87355 14.2216 11.0833L14.0172 11.2468C12.3263 12.5995 11.6567 13.1529 11.2638 13.8775C11.1979 13.9991 11.138 14.1238 11.0842 14.2512C10.7638 15.0106 10.75 15.8792 10.75 18.0446V22.5001C10.75 24.8473 12.6528 26.7501 15 26.7501C15.6903 26.7501 16.25 26.1904 16.25 25.5001V21.5C16.25 19.4289 17.9289 17.75 20 17.75C22.0711 17.75 23.75 19.4289 23.75 21.5V25.5001C23.75 26.1904 24.3096 26.7501 25 26.7501C27.3472 26.7501 29.25 24.8473 29.25 22.5001V18.0446C29.25 15.8792 29.2362 15.0106 28.9158 14.2512C28.862 14.1238 28.8021 13.9991 28.7362 13.8775C28.5019 13.4455 28.1541 13.0549 27.5084 12.4946C27.1956 12.2231 27.162 11.7494 27.4335 11.4366C27.705 11.1237 28.1787 11.0902 28.4915 11.3617C29.1865 11.9647 29.6932 12.4955 30.0548 13.1626C30.144 13.327 30.2251 13.4957 30.2978 13.6681C30.7506 14.7414 30.7504 15.9364 30.75 17.8734C30.75 17.9298 30.75 17.9869 30.75 18.0446V22.5001C30.75 25.6757 28.1756 28.2501 25 28.2501C23.4812 28.2501 22.25 27.0189 22.25 25.5001V21.5C22.25 20.2574 21.2426 19.25 20 19.25C18.7573 19.25 17.75 20.2574 17.75 21.5V25.5001C17.75 27.0189 16.5188 28.2501 15 28.2501C11.8243 28.2501 9.24998 25.6757 9.24998 22.5001V18.0446C9.24998 17.9869 9.24997 17.9298 9.24996 17.8734C9.24958 15.9364 9.24935 14.7414 9.70217 13.6681C9.77489 13.4957 9.85598 13.327 9.94514 13.1626C10.5004 12.1385 11.4336 11.3922 12.9464 10.1824C12.9905 10.1472 13.0351 10.1115 13.0801 10.0755L13.2845 9.91198L13.3235 9.88079C14.7881 8.70907 15.9407 7.78703 16.9474 7.16405C17.9804 6.5248 18.9317 6.1532 20 6.1532C21.7951 6.1532 23.3049 7.21432 25.4642 8.91563C25.7895 9.17198 25.8454 9.64355 25.5891 9.96891C25.3327 10.2943 24.8612 10.3502 24.5358 10.0938C22.2927 8.32644 21.1891 7.6532 20 7.6532C19.3144 7.6532 18.6399 7.88067 17.7367 8.43957Z" fill="white"/>
<path d="M40.6464 21.5V14.2273H42.184V17.228H45.3055V14.2273H46.8396V21.5H45.3055V18.4957H42.184V21.5H40.6464ZM50.3034 21.6065C49.7518 21.6065 49.2748 21.4893 48.8723 21.255C48.4722 21.0182 48.1633 20.6892 47.9455 20.2678C47.7277 19.844 47.6188 19.3527 47.6188 18.794C47.6188 18.2306 47.7277 17.7382 47.9455 17.3168C48.1633 16.893 48.4722 16.5639 48.8723 16.3295C49.2748 16.0928 49.7518 15.9744 50.3034 15.9744C50.855 15.9744 51.3309 16.0928 51.731 16.3295C52.1334 16.5639 52.4436 16.893 52.6614 17.3168C52.8792 17.7382 52.9881 18.2306 52.9881 18.794C52.9881 19.3527 52.8792 19.844 52.6614 20.2678C52.4436 20.6892 52.1334 21.0182 51.731 21.255C51.3309 21.4893 50.855 21.6065 50.3034 21.6065ZM50.3105 20.4347C50.5615 20.4347 50.771 20.3636 50.9391 20.2216C51.1072 20.0772 51.2338 19.8807 51.319 19.6321C51.4066 19.3835 51.4504 19.1006 51.4504 18.7834C51.4504 18.4661 51.4066 18.1832 51.319 17.9347C51.2338 17.6861 51.1072 17.4896 50.9391 17.3452C50.771 17.2008 50.5615 17.1286 50.3105 17.1286C50.0572 17.1286 49.8441 17.2008 49.6713 17.3452C49.5009 17.4896 49.3718 17.6861 49.2842 17.9347C49.199 18.1832 49.1564 18.4661 49.1564 18.7834C49.1564 19.1006 49.199 19.3835 49.2842 19.6321C49.3718 19.8807 49.5009 20.0772 49.6713 20.2216C49.8441 20.3636 50.0572 20.4347 50.3105 20.4347ZM53.7317 21.5V16.0455H55.1735V17.0078H55.2374C55.3511 16.6882 55.5405 16.4361 55.8056 16.2514C56.0708 16.0668 56.388 15.9744 56.7573 15.9744C57.1314 15.9744 57.4498 16.0679 57.7126 16.255C57.9753 16.4396 58.1505 16.6906 58.2381 17.0078H58.295C58.4062 16.6953 58.6075 16.4455 58.8986 16.2585C59.1922 16.0691 59.539 15.9744 59.9391 15.9744C60.4481 15.9744 60.8612 16.1366 61.1785 16.4609C61.4981 16.7829 61.6579 17.2398 61.6579 17.8317V21.5H60.1486V18.13C60.1486 17.8269 60.0682 17.5997 59.9072 17.4482C59.7462 17.2966 59.545 17.2209 59.3035 17.2209C59.0289 17.2209 58.8146 17.3085 58.6607 17.4837C58.5068 17.6565 58.4299 17.8849 58.4299 18.169V21.5H56.9633V18.098C56.9633 17.8305 56.8863 17.6174 56.7325 17.4588C56.5809 17.3002 56.3809 17.2209 56.1323 17.2209C55.9642 17.2209 55.8127 17.2635 55.6778 17.3487C55.5452 17.4316 55.4398 17.5488 55.3617 17.7003C55.2836 17.8494 55.2445 18.0246 55.2445 18.2259V21.5H53.7317ZM65.0986 21.6065C64.5375 21.6065 64.0546 21.4929 63.6498 21.2656C63.2473 21.036 62.9372 20.7116 62.7194 20.2926C62.5016 19.8712 62.3927 19.3729 62.3927 18.7976C62.3927 18.2365 62.5016 17.7441 62.7194 17.3203C62.9372 16.8965 63.2438 16.5663 63.6391 16.3295C64.0368 16.0928 64.5032 15.9744 65.0383 15.9744C65.3981 15.9744 65.7331 16.0324 66.0432 16.1484C66.3557 16.2621 66.628 16.4337 66.86 16.6634C67.0944 16.893 67.2767 17.1818 67.4069 17.5298C67.5371 17.8755 67.6022 18.2803 67.6022 18.7443V19.1598H62.9964V18.2223H66.1782C66.1782 18.0045 66.1308 17.8116 66.0361 17.6435C65.9414 17.4754 65.81 17.344 65.642 17.2493C65.4762 17.1522 65.2833 17.1037 65.0631 17.1037C64.8335 17.1037 64.6299 17.157 64.4523 17.2635C64.2771 17.3677 64.1398 17.5085 64.0404 17.6861C63.941 17.8613 63.8901 18.0566 63.8877 18.272V19.1634C63.8877 19.4332 63.9374 19.6664 64.0368 19.8629C64.1386 20.0594 64.2819 20.2109 64.4665 20.3175C64.6512 20.424 64.8702 20.4773 65.1235 20.4773C65.2916 20.4773 65.4455 20.4536 65.5851 20.4062C65.7248 20.3589 65.8444 20.2879 65.9438 20.1932C66.0432 20.0985 66.119 19.9825 66.1711 19.8452L67.5702 19.9375C67.4992 20.2737 67.3536 20.5672 67.1334 20.8182C66.9156 21.0668 66.6339 21.2609 66.2883 21.4006C65.945 21.5379 65.5484 21.6065 65.0986 21.6065Z" fill="white"/>
</svg>
