<svg xmlns="http://www.w3.org/2000/svg" viewBox="0 0 32 32"><g id="laptop"><path d="M29,20H28V9a3,3,0,0,0-3-3H7A3,3,0,0,0,4,9V20H3a1,1,0,0,0-1,1v2a4,4,0,0,0,4,4H26a4,4,0,0,0,4-4V21A1,1,0,0,0,29,20ZM6,9A1,1,0,0,1,7,8H25a1,1,0,0,1,1,1V20H20a1,1,0,0,0-.71.29l-.7.71H13.41l-.7-.71A1,1,0,0,0,12,20H6ZM28,23a2,2,0,0,1-2,2H6a2,2,0,0,1-2-2V22h7.59l.7.71A1,1,0,0,0,13,23h6a1,1,0,0,0,.71-.29l.7-.71H28Z"/><path d="M12.47,17.85A1,1,0,0,0,13,18a1,1,0,0,0,.45-.11l6-3a1,1,0,0,0,0-1.78l-6-3A1,1,0,0,0,12,11v6A1,1,0,0,0,12.47,17.85ZM14,12.62,16.76,14,14,15.38Z"/></g></svg>