<svg xmlns="http://www.w3.org/2000/svg" viewBox="0 0 32 32"><g id="movie"><path d="M16.26,14A2.74,2.74,0,0,0,19,11.26V4.74A2.74,2.74,0,0,0,16.26,2H4.74A2.74,2.74,0,0,0,2,4.74v6.52A2.74,2.74,0,0,0,4.74,14ZM8,4h5v8H8Zm9,7.26a.74.74,0,0,1-.74.74H15V9h2Zm0-6.52V7H15V4h1.26A.74.74,0,0,1,17,4.74ZM4.74,4H6V7H4V4.74A.74.74,0,0,1,4.74,4ZM4,11.26V9H6v3H4.74A.74.74,0,0,1,4,11.26Z"/><path d="M27.26,18H15.74A2.74,2.74,0,0,0,13,20.74v6.52A2.74,2.74,0,0,0,15.74,30H27.26A2.74,2.74,0,0,0,30,27.26V20.74A2.74,2.74,0,0,0,27.26,18ZM28,20.74V23H26V20h1.26A.74.74,0,0,1,28,20.74ZM19,20h5v8H19Zm-3.26,0H17v3H15V20.74A.74.74,0,0,1,15.74,20ZM15,27.26V25h2v3H15.74A.74.74,0,0,1,15,27.26Zm13,0a.74.74,0,0,1-.74.74H26V25h2Z"/><path d="M22.29,10.71a1,1,0,0,0,1.42,0,1,1,0,0,0,0-1.42L23.41,9H25a1,1,0,0,1,1,1v4a1,1,0,0,0,2,0V10a3,3,0,0,0-3-3H23.41l.3-.29a1,1,0,1,0-1.42-1.42l-2,2a1,1,0,0,0,0,1.42Z"/><path d="M9.71,21.29a1,1,0,0,0-1.42,1.42l.3.29H7a1,1,0,0,1-1-1V18a1,1,0,0,0-2,0v4a3,3,0,0,0,3,3H8.59l-.3.29a1,1,0,0,0,0,1.42,1,1,0,0,0,1.42,0l2-2a1,1,0,0,0,0-1.42Z"/></g></svg>