<svg xmlns="http://www.w3.org/2000/svg" viewBox="0 0 32 32"><g id="play_record" data-name="play record"><path d="M28.56,7.26a2.32,2.32,0,0,0-2.45.2l-4.11,3V10.2A4.2,4.2,0,0,0,17.8,6H6.2A4.2,4.2,0,0,0,2,10.2V21.8A4.2,4.2,0,0,0,6.2,26H17.8A4.19,4.19,0,0,0,22,22.17l4.36,2.51a2.32,2.32,0,0,0,2.35,0A2.77,2.77,0,0,0,30,22.26V9.74A2.75,2.75,0,0,0,28.56,7.26ZM20,21.8A2.21,2.21,0,0,1,17.8,24H6.2A2.21,2.21,0,0,1,4,21.8V10.2A2.21,2.21,0,0,1,6.2,8H17.8A2.21,2.21,0,0,1,20,10.2V21.8Zm8,.46a.79.79,0,0,1-.33.69.33.33,0,0,1-.35,0L22,19.88v-7l5.28-3.81a.34.34,0,0,1,.37,0,.77.77,0,0,1,.35.7Z"/><path d="M15.55,15.17l-6-4a1,1,0,0,0-1-.05A1,1,0,0,0,8,12v8a1,1,0,0,0,.53.88,1,1,0,0,0,1-.05l6-4a1,1,0,0,0,0-1.66Zm-5.55,3V13.87L13.2,16Z"/></g></svg>