<svg xmlns="http://www.w3.org/2000/svg" viewBox="0 0 32 32"><g id="play"><path d="M26.56,8H24V5.44A3.44,3.44,0,0,0,20.56,2H5.44A3.44,3.44,0,0,0,2,5.44V20.56A3.44,3.44,0,0,0,5.44,24H8v2.56A3.44,3.44,0,0,0,11.44,30H26.56A3.44,3.44,0,0,0,30,26.56V11.44A3.44,3.44,0,0,0,26.56,8ZM4,20.56V5.44A1.44,1.44,0,0,1,5.44,4H20.56A1.44,1.44,0,0,1,22,5.44V20.56A1.44,1.44,0,0,1,20.56,22H5.44A1.44,1.44,0,0,1,4,20.56Zm24,6A1.44,1.44,0,0,1,26.56,28H11.44A1.44,1.44,0,0,1,10,26.56V24H20.56A3.44,3.44,0,0,0,24,20.56V10h2.56A1.44,1.44,0,0,1,28,11.44Z"/><path d="M9.47,16.85A1,1,0,0,0,10,17a1,1,0,0,0,.45-.11l6-3a1,1,0,0,0,0-1.78l-6-3A1,1,0,0,0,9,10v6A1,1,0,0,0,9.47,16.85ZM11,11.62,13.76,13,11,14.38Z"/></g></svg>