<svg xmlns="http://www.w3.org/2000/svg" viewBox="0 0 32 32"><g id="record"><path d="M22.18,20.45a2.25,2.25,0,0,0,.68.11A2.15,2.15,0,0,0,25,18.41V13.59a2.15,2.15,0,0,0-2.82-2l-3.37,1.13A2.68,2.68,0,0,0,16.34,11H9.66A2.66,2.66,0,0,0,7,13.66v4.68A2.66,2.66,0,0,0,9.66,21h6.68a2.68,2.68,0,0,0,2.47-1.68Zm.63-7a.15.15,0,0,1,.13,0,.14.14,0,0,1,.06.12v4.82a.14.14,0,0,1-.06.12.15.15,0,0,1-.13,0h0L19,17.28V14.72ZM17,18.34a.67.67,0,0,1-.66.66H9.66A.67.67,0,0,1,9,18.34V13.66A.67.67,0,0,1,9.66,13h6.68a.67.67,0,0,1,.66.66v4.68Z"/><path d="M11,28H7a3,3,0,0,1-3-3V21a1,1,0,0,0-2,0v4a5,5,0,0,0,5,5h4a1,1,0,0,0,0-2Z"/><path d="M29,20a1,1,0,0,0-1,1v4a3,3,0,0,1-3,3H21a1,1,0,0,0,0,2h4a5,5,0,0,0,5-5V21A1,1,0,0,0,29,20Z"/><path d="M25,2H21a1,1,0,0,0,0,2h4a3,3,0,0,1,3,3v4a1,1,0,0,0,2,0V7A5,5,0,0,0,25,2Z"/><path d="M3,12a1,1,0,0,0,1-1V7A3,3,0,0,1,7,4h4a1,1,0,0,0,0-2H7A5,5,0,0,0,2,7v4A1,1,0,0,0,3,12Z"/></g></svg>