<svg xmlns="http://www.w3.org/2000/svg" viewBox="0 0 32 32"><g id="recording"><path d="M5.5,20H21a9,9,0,1,0-5.64-2H5.5a3.5,3.5,0,0,0,0,7h17a1.5,1.5,0,0,1,0,3H17a1,1,0,0,0,0,2h5.5a3.5,3.5,0,0,0,0-7H5.5a1.5,1.5,0,0,1,0-3ZM14,11a7,7,0,1,1,7,7A7,7,0,0,1,14,11Z"/><path d="M21,5a1,1,0,0,0-1,1V8a1,1,0,0,0,2,0V6A1,1,0,0,0,21,5Z"/><path d="M21,13a1,1,0,0,0-1,1v2a1,1,0,0,0,2,0V14A1,1,0,0,0,21,13Z"/><path d="M27,11a1,1,0,0,0-1-1H24a1,1,0,0,0,0,2h2A1,1,0,0,0,27,11Z"/><path d="M18,10H16a1,1,0,0,0,0,2h2a1,1,0,0,0,0-2Z"/></g></svg>