<svg xmlns="http://www.w3.org/2000/svg" viewBox="0 0 32 32"><g id="roll_of_tape" data-name="roll of tape"><path d="M18,4a12,12,0,0,0-6.62,22H3a1,1,0,0,0,0,2H18A12,12,0,0,0,18,4Zm0,22A10,10,0,1,1,28,16,10,10,0,0,1,18,26Z"/><path d="M18,12a4,4,0,1,0,4,4A4,4,0,0,0,18,12Zm0,6a2,2,0,1,1,2-2A2,2,0,0,1,18,18Z"/><path d="M18,11a1,1,0,0,0,1-1V8a1,1,0,0,0-2,0v2A1,1,0,0,0,18,11Z"/><path d="M18,21a1,1,0,0,0-1,1v2a1,1,0,0,0,2,0V22A1,1,0,0,0,18,21Z"/><path d="M12,15H10a1,1,0,0,0,0,2h2a1,1,0,0,0,0-2Z"/><path d="M26,15H24a1,1,0,0,0,0,2h2a1,1,0,0,0,0-2Z"/></g></svg>