<svg xmlns="http://www.w3.org/2000/svg" viewBox="0 0 32 32"><g id="television"><path d="M29.65,4.24A1,1,0,0,0,28.84,4,79.59,79.59,0,0,1,3.16,4a1,1,0,0,0-.81.23A1,1,0,0,0,2,5V23a1,1,0,0,0,1.16,1,78.57,78.57,0,0,1,25.68,0H29a1,1,0,0,0,.65-.24A1,1,0,0,0,30,23V5A1,1,0,0,0,29.65,4.24ZM28,21.83a82.79,82.79,0,0,0-11-.89,82.15,82.15,0,0,0-13,.89V6.17a81.8,81.8,0,0,0,24,0Z"/><path d="M20.47,25.12a9.48,9.48,0,0,0-8.94,0,1,1,0,1,0,.94,1.76,7.52,7.52,0,0,1,7.06,0,1,1,0,0,0,.94-1.76Z"/><path d="M13.47,10.15A1,1,0,0,0,13,11v6a1,1,0,0,0,.47.85A1,1,0,0,0,14,18a1,1,0,0,0,.45-.11l6-3a1,1,0,0,0,0-1.78l-6-3A1,1,0,0,0,13.47,10.15ZM15,12.62,17.76,14,15,15.38Z"/></g></svg>