<svg xmlns="http://www.w3.org/2000/svg" viewBox="0 0 32 32"><g id="wifi"><path d="M27,4H5A3,3,0,0,0,2,7V19a3,3,0,0,0,3,3h7v3.46A2.54,2.54,0,0,0,14.54,28h2.92A2.54,2.54,0,0,0,20,25.46V22h7a3,3,0,0,0,3-3V7A3,3,0,0,0,27,4ZM18,25.46a.54.54,0,0,1-.54.54H14.54a.54.54,0,0,1-.54-.54V19.54a.54.54,0,0,1,.54-.54h2.92a.54.54,0,0,1,.54.54ZM28,19a1,1,0,0,1-1,1H20v-.46A2.54,2.54,0,0,0,17.46,17H14.54A2.54,2.54,0,0,0,12,19.54V20H5a1,1,0,0,1-1-1V7A1,1,0,0,1,5,6H27a1,1,0,0,1,1,1Z"/><path d="M16,12a6,6,0,0,0-3.6,1.2,1,1,0,0,0,1.2,1.6,4,4,0,0,1,4.8,0,1,1,0,0,0,.6.2,1,1,0,0,0,.8-.4,1,1,0,0,0-.2-1.4A6.07,6.07,0,0,0,16,12Z"/><path d="M16,8a8.33,8.33,0,0,0-5.69,2.28,1,1,0,0,0,0,1.41,1,1,0,0,0,1.41,0,6.26,6.26,0,0,1,8.62,0,1,1,0,1,0,1.38-1.44A8.35,8.35,0,0,0,16,8Z"/></g></svg>