<svg xmlns="http://www.w3.org/2000/svg" viewBox="0 0 32 32"><g id="youtube"><path d="M27.15,3H4.85A2.86,2.86,0,0,0,2,5.85v14.3A2.86,2.86,0,0,0,4.85,23h22.3A2.86,2.86,0,0,0,30,20.15V5.85A2.86,2.86,0,0,0,27.15,3ZM28,20.15a.85.85,0,0,1-.85.85H4.85A.85.85,0,0,1,4,20.15V5.85A.85.85,0,0,1,4.85,5h22.3a.85.85,0,0,1,.85.85Z"/><path d="M29,26H10.82a3,3,0,0,0-5.64,0H3a1,1,0,0,0,0,2H5.18a3,3,0,0,0,5.64,0H29a1,1,0,0,0,0-2ZM8,28a1,1,0,1,1,1-1A1,1,0,0,1,8,28Z"/><path d="M19.45,12.11l-6-3A1,1,0,0,0,12,10v6a1,1,0,0,0,.47.85A1,1,0,0,0,13,17a1,1,0,0,0,.45-.11l6-3a1,1,0,0,0,0-1.78ZM14,14.38V11.62L16.76,13Z"/></g></svg>